<svg width="33" height="32" viewBox="0 0 33 32" fill="none" xmlns="http://www.w3.org/2000/svg">
<path d="M23.4722 9.02782L22.7311 8.91267C22.6944 9.14913 22.7727 9.38893 22.9419 9.55814C23.1111 9.72736 23.3509 9.80566 23.5874 9.76892L23.4722 9.02782ZM22.0903 12.8846L22.6504 12.3858C22.5131 12.2317 22.3183 12.1409 22.112 12.1349C21.9056 12.129 21.7059 12.2083 21.56 12.3543L22.0903 12.8846ZM13.3846 21.5903L12.8543 21.06C12.7083 21.206 12.6289 21.4057 12.6349 21.612C12.6409 21.8184 12.7316 22.0131 12.8858 22.1504L13.3846 21.5903ZM9.52779 22.9723L10.2689 23.0874C10.3056 22.8509 10.2273 22.6111 10.0581 22.4419C9.8889 22.2727 9.6491 22.1944 9.41264 22.2312L9.52779 22.9723ZM10.9097 19.1155L10.3496 19.6143C10.4869 19.7684 10.6817 19.8592 10.888 19.8651C11.0944 19.8711 11.2941 19.7918 11.44 19.6458L10.9097 19.1155ZM19.6154 10.4097L20.1458 10.9401C20.2917 10.7941 20.3711 10.5944 20.3651 10.3881C20.3592 10.1817 20.2684 9.98696 20.1142 9.84967L19.6154 10.4097ZM24.2133 9.14296C24.2375 8.98731 24.25 8.82821 24.25 8.66671H22.75C22.75 8.75084 22.7435 8.83294 22.7311 8.91267L24.2133 9.14296ZM23.8333 8.25004C23.6718 8.25004 23.5127 8.26253 23.3571 8.28671L23.5874 9.76892C23.6671 9.75654 23.7492 9.75004 23.8333 9.75004V8.25004ZM26.9167 11.3334C26.9167 9.6305 25.5362 8.25004 23.8333 8.25004V9.75004C24.7078 9.75004 25.4167 10.4589 25.4167 11.3334H26.9167ZM23.8333 14.4167C25.5362 14.4167 26.9167 13.0363 26.9167 11.3334H25.4167C25.4167 12.2078 24.7078 12.9167 23.8333 12.9167V14.4167ZM21.5302 13.3834C22.0939 14.0163 22.9173 14.4167 23.8333 14.4167V12.9167C23.3631 12.9167 22.9415 12.7126 22.6504 12.3858L21.5302 13.3834ZM13.9149 22.1207L22.6206 13.415L21.56 12.3543L12.8543 21.06L13.9149 22.1207ZM14.9167 23.3334C14.9167 22.4174 14.5163 21.5939 13.8834 21.0303L12.8858 22.1504C13.2126 22.4415 13.4167 22.8631 13.4167 23.3334H14.9167ZM11.8333 26.4167C13.5362 26.4167 14.9167 25.0363 14.9167 23.3334H13.4167C13.4167 24.2078 12.7078 24.9167 11.8333 24.9167V26.4167ZM8.75001 23.3334C8.75001 25.0363 10.1305 26.4167 11.8333 26.4167V24.9167C10.9589 24.9167 10.25 24.2078 10.25 23.3334H8.75001ZM8.78668 22.8571C8.7625 23.0128 8.75001 23.1719 8.75001 23.3334H10.25C10.25 23.2493 10.2565 23.1671 10.2689 23.0874L8.78668 22.8571ZM9.16668 23.75C9.32818 23.75 9.48728 23.7376 9.64293 23.7134L9.41264 22.2312C9.33291 22.2435 9.2508 22.25 9.16668 22.25V23.75ZM6.08334 20.6667C6.08334 22.3696 7.4638 23.75 9.16668 23.75V22.25C8.29223 22.25 7.58334 21.5412 7.58334 20.6667H6.08334ZM9.16668 17.5834C7.4638 17.5834 6.08334 18.9638 6.08334 20.6667H7.58334C7.58334 19.7923 8.29223 19.0834 9.16668 19.0834V17.5834ZM11.4698 18.6167C10.9061 17.9838 10.0827 17.5834 9.16668 17.5834V19.0834C9.63693 19.0834 10.0586 19.2874 10.3496 19.6143L11.4698 18.6167ZM19.0851 9.87942L10.3794 18.5851L11.44 19.6458L20.1458 10.9401L19.0851 9.87942ZM18.0833 8.66671C18.0833 9.58271 18.4837 10.4062 19.1166 10.9698L20.1142 9.84967C19.7874 9.55859 19.5833 9.13696 19.5833 8.66671H18.0833ZM21.1667 5.58337C19.4638 5.58337 18.0833 6.96383 18.0833 8.66671H19.5833C19.5833 7.79226 20.2922 7.08337 21.1667 7.08337V5.58337ZM24.25 8.66671C24.25 6.96383 22.8696 5.58337 21.1667 5.58337V7.08337C22.0411 7.08337 22.75 7.79226 22.75 8.66671H24.25Z" fill="#141414"/>
</svg>
