<svg width="136" height="40" viewBox="0 0 136 40" fill="none" xmlns="http://www.w3.org/2000/svg">
<g clip-path="url(#clip0_1_13942)">
<path d="M130.2 39.7964H5.19945C2.44995 39.7964 0.199951 37.5707 0.199951 34.85V5.15361C0.199951 2.43201 2.44995 0.203613 5.19945 0.203613H130.2C132.946 0.203613 135.2 2.43201 135.2 5.15361V34.85C135.2 37.5707 132.95 39.7964 130.2 39.7964Z" fill="black"/>
<path d="M130.2 0.994759C132.513 0.994759 134.398 2.86136 134.398 5.15276V34.8501C134.398 37.1388 132.514 39.0054 130.2 39.0054H5.19945C2.88195 39.0054 1.00095 37.1424 1.00095 34.8501V5.15366C1.00095 2.86136 2.88555 0.994759 5.19945 0.994759H130.2ZM130.2 0.202759H5.19945C2.44995 0.203659 0.199951 2.43206 0.199951 5.15366V34.8501C0.199951 37.5708 2.44995 39.8001 5.19945 39.8001H130.2C132.946 39.8001 135.2 37.5708 135.2 34.8501V5.15366C135.2 2.43206 132.95 0.203659 130.2 0.203659V0.202759Z" fill="#A6A6A6"/>
<path d="M44.6689 13.286C43.7869 13.286 43.0273 12.98 42.4054 12.3707C41.7862 11.7587 41.473 10.9964 41.473 10.1C41.473 9.2036 41.7862 8.4404 42.4054 7.8356C43.0237 7.2281 43.7869 6.9176 44.6689 6.9176C45.0946 6.9176 45.5194 7.0031 45.9316 7.175C46.3357 7.3469 46.6588 7.5755 46.8982 7.8608L46.9432 7.9166L46.3105 8.5493L46.2547 8.4827C45.8641 8.0327 45.3475 7.8113 44.6689 7.8113C44.3758 7.80801 44.0848 7.86252 43.8127 7.97169C43.5406 8.08087 43.2927 8.24259 43.0831 8.4476C42.6403 8.8697 42.4189 9.425 42.4189 10.1C42.4189 10.7786 42.6403 11.3375 43.0831 11.7596C43.5331 12.1817 44.0677 12.3923 44.6689 12.3923C45.316 12.3923 45.8569 12.1781 46.2862 11.756C46.5499 11.4923 46.7047 11.144 46.7569 10.6868H44.5879V9.812H47.6362L47.6506 9.875C47.6821 10.019 47.6992 10.1666 47.6992 10.343C47.6992 11.1827 47.4391 11.8721 46.9333 12.3815C46.3492 12.9791 45.5905 13.2851 44.6689 13.2851V13.286ZM52.3054 13.1483H48.6451V7.0553H52.3054V7.9445H49.5766V9.6635H52.0381V10.5392H49.5766V12.2582H52.3054V13.1483ZM55.5571 13.1483H54.6256V7.9445H52.9516V7.0553H57.2338V7.9445H55.5571V13.1483ZM60.985 13.1483H60.0571V7.0553H60.985V13.1483ZM64.405 13.1483H63.4816V7.9445H61.8004V7.0553H66.0862V7.9445H64.4059L64.405 13.1483ZM71.6131 13.2851C70.7167 13.2851 69.9571 12.9755 69.3523 12.3608C68.7511 11.7488 68.4451 10.9892 68.4451 10.1036C68.4451 9.2144 68.7511 8.4512 69.3523 7.8428C69.9571 7.2308 70.7167 6.9185 71.6131 6.9185C72.5023 6.9185 73.2583 7.2308 73.8631 7.85C74.4679 8.462 74.773 9.2207 74.773 10.1036C74.773 10.9892 74.467 11.7524 73.8667 12.3644C73.2619 12.9764 72.5023 13.2851 71.6131 13.2851ZM70.0345 11.7524C70.4701 12.1844 70.9831 12.3959 71.6131 12.3959C71.9046 12.4015 72.194 12.3472 72.4637 12.2365C72.7333 12.1259 72.9774 11.9611 73.1809 11.7524C73.6093 11.3231 73.828 10.7678 73.828 10.1C73.828 9.4358 73.6093 8.8805 73.18 8.4512C72.7588 8.0219 72.2314 7.8077 71.6131 7.8077C70.9867 7.8077 70.4701 8.0183 70.0345 8.4512C69.6088 8.8805 69.391 9.4358 69.391 10.1C69.391 10.7678 69.6088 11.324 70.0345 11.7524ZM80.479 13.1474H79.5511L79.5268 13.1096L76.5946 8.4584L76.6225 9.3692V13.1483H75.6946V7.0553H76.7566L79.5754 11.5166L79.5484 10.613V7.0553H80.479V13.1474ZM68.3326 21.737C65.9881 21.737 64.0684 23.5055 64.0684 25.9445C64.0684 28.3673 65.9881 30.1565 68.3326 30.1565C70.6879 30.1565 72.6076 28.3673 72.6076 25.9445C72.6076 23.5055 70.6879 21.737 68.3326 21.737ZM68.3326 28.4969C67.0456 28.4969 65.9386 27.443 65.9386 25.9445C65.9386 24.4298 67.0456 23.393 68.3326 23.393C69.6232 23.393 70.7374 24.4298 70.7374 25.9445C70.7374 27.443 69.6232 28.4969 68.3326 28.4969ZM59.0239 21.737C56.6686 21.737 54.7561 23.5055 54.7561 25.9445C54.7561 28.3673 56.6686 30.1565 59.0239 30.1565C61.3765 30.1565 63.2926 28.3673 63.2926 25.9445C63.2926 23.5055 61.3756 21.737 59.0239 21.737ZM59.0239 28.4969C57.7342 28.4969 56.6227 27.443 56.6227 25.9445C56.6227 24.4298 57.7342 23.393 59.0239 23.393C60.3109 23.393 61.4215 24.4298 61.4215 25.9445C61.4215 27.443 60.3109 28.4969 59.0239 28.4969ZM47.9431 23.0267V24.8168H52.2604C52.1344 25.8149 51.796 26.5493 51.2794 27.0632C50.6494 27.6815 49.6684 28.3673 47.9431 28.3673C45.2881 28.3673 43.2073 26.2469 43.2073 23.618C43.2073 20.9882 45.289 18.8642 47.9431 18.8642C49.3813 18.8642 50.4253 19.4195 51.1948 20.1404L52.471 18.8786C51.391 17.8589 49.9573 17.0786 47.9431 17.0786C44.3008 17.0786 41.2426 20.0108 41.2426 23.618C41.2426 27.2207 44.3044 30.1565 47.9431 30.1565C49.9114 30.1565 51.3919 29.5175 52.5556 28.3178C53.7472 27.1406 54.1162 25.481 54.1162 24.1445C54.1162 23.7269 54.0811 23.3471 54.0217 23.0267H47.9431ZM93.2527 24.4127C92.9008 23.4695 91.8181 21.737 89.6104 21.737C87.4198 21.737 85.5991 23.4416 85.5991 25.9445C85.5991 28.3043 87.4027 30.1565 89.8174 30.1565C91.7722 30.1565 92.9008 28.9757 93.3616 28.2899L91.9126 27.3332C91.4275 28.0334 90.7696 28.4969 89.8174 28.4969C88.8724 28.4969 88.1938 28.0685 87.7573 27.2207L93.4453 24.8897C93.4489 24.8897 93.2527 24.4127 93.2527 24.4127ZM87.4513 25.8149C87.4027 24.1904 88.7239 23.3606 89.6743 23.3606C90.415 23.3606 91.0441 23.7269 91.2556 24.2543L87.4513 25.8149ZM82.8289 29.9H84.6991V17.525H82.8289V29.9ZM79.7662 22.6721H79.7032C79.2847 22.1834 78.4828 21.7361 77.4676 21.7361C75.3364 21.7361 73.3888 23.5856 73.3888 25.9589C73.3888 28.3214 75.3364 30.1565 77.4676 30.1565C78.4828 30.1565 79.2856 29.7065 79.7032 29.2007H79.7662V29.8019C79.7662 31.412 78.8977 32.2769 77.4955 32.2769C76.3525 32.2769 75.646 31.4606 75.3508 30.7757L73.7263 31.4471C74.1943 32.5613 75.4354 33.9356 77.4955 33.9356C79.6888 33.9356 81.5383 32.6594 81.5383 29.5526V21.9926H79.7662V22.6721ZM77.6251 28.4969C76.3381 28.4969 75.259 27.4286 75.259 25.9589C75.259 24.4757 76.339 23.393 77.626 23.393C78.8977 23.393 79.8967 24.4757 79.8967 25.9589C79.8967 27.4286 78.8977 28.4969 77.6251 28.4969ZM102.006 17.525H97.534V29.9H99.4015V25.211H102.006C104.081 25.211 106.109 23.726 106.109 21.368C106.109 19.0082 104.073 17.525 102.006 17.525ZM102.056 23.4911H99.4006V19.2476H102.056C103.448 19.2476 104.243 20.3906 104.243 21.368C104.243 22.3238 103.448 23.4911 102.056 23.4911ZM113.583 21.7118C112.236 21.7118 110.838 22.3031 110.262 23.6072L111.913 24.293C112.272 23.6072 112.926 23.3822 113.619 23.3822C114.585 23.3822 115.566 23.9582 115.581 24.9752V25.1048C115.242 24.9113 114.522 24.6269 113.632 24.6269C111.85 24.6269 110.036 25.5971 110.036 27.4106C110.036 29.0702 111.495 30.1358 113.136 30.1358C114.392 30.1358 115.084 29.5733 115.521 28.9226H115.584V29.8793H117.384V25.1327C117.384 22.9394 115.728 21.7118 113.583 21.7118ZM113.358 28.4933C112.746 28.4933 111.9 28.1918 111.9 27.443C111.9 26.4863 112.957 26.12 113.875 26.12C114.698 26.12 115.081 26.3 115.58 26.5358C115.436 27.6815 114.437 28.4933 113.358 28.4933ZM123.947 21.9827L121.803 27.3476H121.74L119.521 21.9836H117.51L120.84 29.4779L118.941 33.6512H120.889L126.018 21.9827H123.948H123.947ZM107.134 29.9H109.005V17.525H107.134V29.9Z" fill="white"/>
<path d="M10.6346 7.66371C10.343 7.96971 10.1702 8.44041 10.1702 9.05601V30.9476C10.1702 31.5632 10.3394 32.0339 10.6346 32.3399L10.7084 32.4065L23.1013 20.144V19.856L10.7075 7.59351L10.6346 7.66371Z" fill="url(#paint0_linear_1_13942)"/>
<path d="M27.2279 24.2363L23.1005 20.144V19.856L27.2315 15.7673L27.3233 15.8195L32.2166 18.5762C33.6125 19.3601 33.6125 20.6435 32.2166 21.431L27.3233 24.1832C27.3233 24.1805 27.2279 24.2363 27.2279 24.2363Z" fill="url(#paint1_linear_1_13942)"/>
<path d="M27.3233 24.1805L23.1005 20L10.6346 32.339C11.0981 32.8214 11.8541 32.8808 12.7154 32.3993L27.3233 24.1805Z" fill="url(#paint2_linear_1_13942)"/>
<path d="M27.3233 15.8195L12.7163 7.60072C11.8541 7.12192 11.0981 7.18222 10.6346 7.66372L23.1005 20L27.3233 15.8195Z" fill="url(#paint3_linear_1_13942)"/>
</g>
<defs>
<linearGradient id="paint0_linear_1_13942" x1="22.0068" y1="31.1742" x2="5.38656" y2="14.3865" gradientUnits="userSpaceOnUse">
<stop stop-color="#00A0FF"/>
<stop offset="0.007" stop-color="#00A1FF"/>
<stop offset="0.26" stop-color="#00BEFF"/>
<stop offset="0.512" stop-color="#00D2FF"/>
<stop offset="0.76" stop-color="#00DFFF"/>
<stop offset="1" stop-color="#00E3FF"/>
</linearGradient>
<linearGradient id="paint1_linear_1_13942" x1="34.0468" y1="19.9915" x2="9.84108" y2="19.9915" gradientUnits="userSpaceOnUse">
<stop stop-color="#FFE000"/>
<stop offset="0.409" stop-color="#FFBD00"/>
<stop offset="0.775" stop-color="#FFA500"/>
<stop offset="1" stop-color="#FF9C00"/>
</linearGradient>
<linearGradient id="paint2_linear_1_13942" x1="16.6886" y1="25.9817" x2="-5.84979" y2="3.21626" gradientUnits="userSpaceOnUse">
<stop stop-color="#FF3A44"/>
<stop offset="1" stop-color="#C31162"/>
</linearGradient>
<linearGradient id="paint3_linear_1_13942" x1="-0.845342" y1="31.3626" x2="9.21905" y2="21.1968" gradientUnits="userSpaceOnUse">
<stop stop-color="#32A071"/>
<stop offset="0.069" stop-color="#2DA771"/>
<stop offset="0.476" stop-color="#15CF74"/>
<stop offset="0.801" stop-color="#06E775"/>
<stop offset="1" stop-color="#00F076"/>
</linearGradient>
<clipPath id="clip0_1_13942">
<rect width="135" height="40" fill="white" transform="translate(0.199951)"/>
</clipPath>
</defs>
</svg>
